<?xml version="1.0" encoding="utf-8"?>
<!-- Generator: Adobe Illustrator 18.1.0, SVG Export Plug-In . SVG Version: 6.00 Build 0)  -->
<svg version="1.1" id="Icons" xmlns="http://www.w3.org/2000/svg" xmlns:xlink="http://www.w3.org/1999/xlink" x="0px" y="0px"
	 viewBox="419.1 14.8 766.5 766.5" enable-background="new 419.1 14.8 766.5 766.5" xml:space="preserve">


<g>
	<path fill="#FFFFFF" d="M1058.7,243.4H949.9v53.3c-28.4-32.7-69.6-53.3-115.8-53.3H670.6L489.4,552.6h123l39.1-66.8h81v66.8h100.9
		c46.9,0,88.1-20.6,115.8-53.3v53.3h105.2v-66.8h4.3c66.8,0,121.5-54,121.5-121.5S1126.2,243.4,1058.7,243.4L1058.7,243.4z
		 M1058.7,447.4H1016v66.8h-28.4v-66.8h-49c-18.5,39.8-59,66.1-105.2,66.1h-62.5v-66.8H628l-39.1,66.8h-31.3l136.5-231.7h139.3
		c59,0,107.3,42.6,115.1,98.8h39.1v-99.5h71.1c46.2,0,83.2,37,83.2,83.2C1141.8,410.4,1104.9,447.4,1058.7,447.4L1058.7,447.4z"/>
	<path fill="#FFFFFF" d="M833.4,309.5h-34.1v37.7h34.1c27.7,0,50.5,22.7,50.5,50.5s-22.7,49.7-50.5,49.7c0,0-34.1-0.7-34.1,0
		s0,38.4,0,38.4h34.1c48.3,0,88.1-39.1,88.1-88.1C921.5,349.3,881.7,309.5,833.4,309.5L833.4,309.5z"/>
	<path fill="#FFFFFF" d="M1058.7,309.5H1016v37.7h42.6c9.2,0,16.3,7.1,16.3,16.3c0,9.2-7.1,16.3-16.3,16.3H1016v37.7h42.6
		c29.8,0,54.7-24.2,54.7-54.7C1113.4,334.4,1089.2,309.5,1058.7,309.5L1058.7,309.5z"/>
	<polygon fill="#FFFFFF" points="732.5,380.6 666.4,380.6 644.3,419 770.1,419 770.1,309.5 732.5,309.5 	"/>
</g>
</svg>
