<?xml version="1.0" encoding="utf-8"?>
<!-- Generator: Adobe Illustrator 18.1.0, SVG Export Plug-In . SVG Version: 6.00 Build 0)  -->
<svg version="1.1" id="Icons" xmlns="http://www.w3.org/2000/svg" xmlns:xlink="http://www.w3.org/1999/xlink" x="0px" y="0px"
	 viewBox="419.1 14.8 766.5 766.5" enable-background="new 419.1 14.8 766.5 766.5" xml:space="preserve">

<path id="Facebook" fill="#FFFFFF" d="M798.6,245.2c0,14.7,0,79.4,0,79.4h-58.3v97.3h58.3V710h119.1V421.9h80
	c0,0,7.7-46.7,10.9-97.3c-10.2,0-90.9,0-90.9,0s0-56.3,0-66.6c0-9.6,12.8-23,25.6-23s39.7,0,65.3,0c0-13.4,0-58.9,0-101.2
	c-33.3,0-71.7,0-88.4,0C795.4,133.8,798.6,231.1,798.6,245.2z"/>

<g display="none">
	
</g>
</svg>
