<?xml version="1.0" encoding="utf-8"?>
<!-- Generator: Adobe Illustrator 18.1.0, SVG Export Plug-In . SVG Version: 6.00 Build 0)  -->
<svg version="1.1" id="Icons" xmlns="http://www.w3.org/2000/svg" xmlns:xlink="http://www.w3.org/1999/xlink" x="0px" y="0px"
	 viewBox="419.1 14.8 766.5 766.5" enable-background="new 419.1 14.8 766.5 766.5" xml:space="preserve">


<path id="LinkedIn" fill="#FFFFFF" d="M1090,456.8v170.8h-99v-159c0-40-14.4-67.2-50.3-67.2c-27.2,0-43.6,18.5-50.8,36.4
	c-2.6,6.2-3.1,15.4-3.1,24.1v165.7h-99c0,0,1.5-269.8,0-297.5h99v42.1c0,0.5-0.5,0.5-0.5,1h0.5v-1c13.3-20,36.4-49.2,89.2-49.2
	C1041.3,322.9,1090,365.5,1090,456.8z M684.3,186.5c-33.8,0-55.9,22.1-55.9,51.3c0,28.7,21.5,51.3,54.9,51.3h0.5
	c34.4,0,55.9-23.1,55.9-51.3C739.2,208.5,718.2,186.5,684.3,186.5z M634,627.6h99V330.1h-99V627.6z"/>

<g display="none">

</g>
</svg>
