<?xml version="1.0" encoding="utf-8"?>
<!-- Generator: Adobe Illustrator 18.1.0, SVG Export Plug-In . SVG Version: 6.00 Build 0)  -->
<svg version="1.1" id="Icons" xmlns="http://www.w3.org/2000/svg" xmlns:xlink="http://www.w3.org/1999/xlink" x="0px" y="0px"
	 viewBox="419.1 14.8 766.5 766.5" enable-background="new 419.1 14.8 766.5 766.5" xml:space="preserve">


<path id="Twitter__x28_alt_x29_" fill="#FFFFFF" d="M1035.2,375.9c33.1-2.6,55.2-17.5,63.7-37.7c-11.7,7.1-48.7,14.9-68.9,7.8
	c-1.3-4.5-1.9-9.1-3.2-13.6c-15.6-57.2-68.2-102.7-124.1-97.5c4.5-1.9,9.1-3.2,13.6-5.2c5.8-1.9,42.2-7.8,36.4-20.8
	c-4.5-11-48.7,8.4-56.5,11c11-3.9,28.6-11,30.5-23.4c-16.9,2.6-33.1,10.4-45.5,21.4c4.5-5.2,7.8-11,8.4-17.5
	c-44.2,28.6-70.2,86.4-91.6,141.7c-16.2-16.2-31.2-28.6-44.2-35.7c-37-19.5-80.6-40.3-150.1-66.3c-1.9,22.7,11,53.3,50,73.4
	c-8.4-1.3-24,1.3-35.7,4.5c5.2,26,21.4,48.1,65.6,58.5c-20.1,1.3-30.5,5.8-40.3,15.6c9.1,18.2,31.8,39.6,72.1,35.1
	c-44.8,19.5-18.2,55.2,18.2,50c-62.4,64.3-160.5,59.8-217.1,5.8c147.5,200.8,467.3,118.9,515.4-74.1c35.7,0,56.5-12.3,69.5-26.6
	C1080.7,385.7,1050.8,382.4,1035.2,375.9z"/>
<g display="none">
	
</g>
</svg>
