<?xml version="1.0" encoding="utf-8"?>
<!-- Generator: Adobe Illustrator 18.1.0, SVG Export Plug-In . SVG Version: 6.00 Build 0)  -->
<svg version="1.1" id="Icons" xmlns="http://www.w3.org/2000/svg" xmlns:xlink="http://www.w3.org/1999/xlink" x="0px" y="0px"
	 viewBox="419.1 14.8 766.5 766.5" enable-background="new 419.1 14.8 766.5 766.5" xml:space="preserve">

<path fill="#FFFFFF" stroke="#231F20" stroke-width="0.5" stroke-linecap="round" stroke-linejoin="round" d="M961.8,206.2
	c-15.4,6-24.3,8.2-31.3,21.3c-7.2,13.3-5.4,36.8-15.6,46.9c-10.8,10.8-43.8,3.8-59.5,11.6c-16.8,8.2-20.2,30.3-27,53.4
	c-5.8,20-8.3,46.5-26,53.4c-11.9,4.6-32.8,4.7-50.9,6.9c-20.4,2.6-45.2,1.6-55.7,10.7c-14.1,12.2-16.7,46.9-21.5,67.6
	c-5.5,23.8-11.3,45.8-15.9,72.4c-14.1-5.7-26-13.7-38.4-21.1c6.4-28.8,15-63,22.7-93.9c4.2-16.6,5.6-33.4,18.3-41.2
	c25.1-15.3,94.9-1.1,113.3-22.3c6.7-7.7,8.7-26,11.7-37.6c6.7-26,9.8-49.9,32.6-58c16.2-5.7,37.1,0.4,51.9-6
	c21.5-9.4,10.8-59.1,37.4-64.6C923.9,202.4,943.5,208.5,961.8,206.2z"/>
<path fill="#FFFFFF" stroke="#231F20" stroke-width="0.5" stroke-linecap="round" stroke-linejoin="round" d="M805.4,204.4
	c-26.7,7.8-24.3,39.8-43,54.2c-10.4,7.9-28.6,1.7-46.3,8.9c-26.9,11-22.4,63.8-46.1,77.7c-27.4,16.1-82.2-3-101.9,21.5
	c-11.3,14.1-14.2,38.7-19.5,56.3c-5.7,19.1-11.9,37.7-17.6,57.3c-10.9-6.1-21.7-12.3-31.8-19.2c8.1-25.4,16.4-49.5,25.3-75.1
	c2.8-8,4.8-17.9,8.8-24.4c19-31.4,85.3-6.3,108.6-27c9.3-8.2,12.4-26.4,18.3-38.4c6.1-12.5,12.9-28.5,22.1-33.7
	c12.9-7.3,36.5-1.3,49-5.1c10-3.1,15.4-18.5,21-28C763.1,211.3,772.2,199.6,805.4,204.4z"/>
<path fill="#FFFFFF" stroke="#231F20" stroke-width="0.5" stroke-linecap="round" stroke-linejoin="round" d="M1073.8,207.5
	c-15.3,6.3-26.6,6.6-34.1,18.4c-10.8,17-4,46.6-15.8,61.1c-17.8,21.9-73.1,0.1-87,28.2c-6,12.2-6.7,35-10,53.6
	c-4.2,23.7-6,44.7-23.2,51.6c-14.3,5.6-36.5,5.1-55.6,7.8c-25.4,3.6-58.2,2-69,19.9c-5.6,9.3-6.6,24.2-8.9,37.6
	c-6.9,39.8-13.9,76.6-21.1,116.5c-19.7-9.9-38.7-20.6-57.1-31.7c3.6-22.7,8.3-48.8,13.1-76.2c4.4-25,6.3-67.3,26.3-75
	c14.8-5.8,39.4-5,59.4-7.8c20.6-2.9,46.4-3.4,59.4-9.7c25.7-12.5,14.9-74.9,31.2-97.6c3.1-4.2,9.4-8.5,13.3-10.2
	c18.4-8.1,44.3-0.4,64.1-6.8c21.4-6.9,17.5-46.1,27.1-66.6C998,195.1,1043.4,209.7,1073.8,207.5z"/>
<path fill="#FFFFFF" stroke="#231F20" stroke-width="0.5" stroke-linecap="round" stroke-linejoin="round" d="M873.2,205.2
	c-7.8,4.1-16.3,8.4-20.9,15.8c-8.2,13.2-9.6,37-25.9,44.9c-19.9,9.7-51.6,0.6-63.3,17.2c-6.4,9.1-8.4,25.6-12.7,39.4
	c-4.7,15.2-8.9,37-18.4,43.1c-11.3,7.2-31.4,3.9-46.2,5.1c-23.6,2-49,2.5-59.5,18.2c-10.7,15.9-12.9,41.4-18.6,62
	c-5.9,21.5-12,42.2-16.7,62.9c-10.6-6-21.4-12-31.8-18.2c7.5-27.9,17.1-59.2,25.5-88.3c5.9-20.4,9.3-38.7,29.7-43.9
	c10.9-2.8,26.8-2.1,41.5-3.3c13-1,29.5-0.3,39.6-4.3c20.2-7.9,22.4-61.5,35.7-78.7c3.6-4.6,10.7-8.8,15.2-10.2
	c12.9-4.2,27.3,1.4,41.5-4.3c11.6-4.6,15.1-24.9,22.1-36.5C821,207.7,839.9,198.9,873.2,205.2z"/>
</svg>
