<svg xmlns="http://www.w3.org/2000/svg" version="1.1" id="Layer_1" x="0" y="0" viewBox="671.4 -0.4 1008 799.8" enable-background="new 671.4 -0.4 1008 799.8" xml:space="preserve">
  <path d="M1148 667.9c-31.6-17.1-62.9-33.9-94.2-51 1.1-6.4 1.9-12.4 3-18.5 3-18 6-36.2 9-54.2 3.2-19.4 6.5-38.7 9.7-58.1 3.5-21.4 7.1-42.6 10.6-63.9 1.4-8.1 2.5-16.3 4.2-24.2 2.8-12.9 9-23.7 20.3-30.9 6.9-4.4 14.5-6.2 22.4-7.1 10.4-1.2 21-2.5 31.4-3.9 11-1.4 22.1-3.2 33-4.8 10.6-1.6 21.2-3 31.8-4.6 10.4-1.6 20.8-3.2 31.4-4.8 12.2-1.9 24.6-3.7 36.7-5.7 1.8-0.4 3.7-0.5 5.5-0.7 14.3-2.1 24-10.4 30.6-22.8 4.2-7.9 6-16.6 7.4-25.4 1.6-10.2 3-20.3 4.8-30.6 4.2-23.3 8.5-46.6 13.2-69.7 3.9-18.7 15.5-31.3 33.2-38.3 7.6-3 15.5-4.2 23.5-4.9 12.5-1.1 25.1-2.3 37.4-3.2 5.5-0.5 11-0.7 16.4-1.1 6.4-0.4 12.7-0.4 19.1-0.9 6.9-0.5 12.5-3.9 17.5-8.5 6.9-6.5 11.8-14.7 14.5-23.7 4.2-14.5 8.1-29 11.8-43.6 2.3-9.4 3.5-18.9 5.5-28.3 1.9-9.4 7.1-16.8 13.8-23.3 1.9-1.9 4.1-3.5 6.4-4.9 5.3-3.7 11-6 17.7-5.8 14.3 0.2 28.4-0.4 42.7-0.4 18 0 35.9 0.5 53.9 0.9 2.5 0 5.1 0.4 7.8 0.9 -1.9 0.5-4.1 1.2-6 1.8 -10.4 3.2-20.5 7.2-29.5 13.4 -12.7 8.7-20.1 20.3-22.3 35.9 -3 19.8-6.9 39.4-10.4 59.2 -0.5 2.8-0.9 5.7-1.8 8.3 -3.2 11-10.2 18.7-20.1 24 -7.6 4.1-16.1 6.4-24.7 6.9 -14.7 0.9-29.3 1.6-44 2.6 -11.5 0.9-23 1.8-34.1 5.5 -20 6.7-30.4 20.8-33.6 41.3 -3.2 21.2-6.2 42.4-9.7 63.6 -3 18.4-6.4 36.7-9.9 54.9 -2.6 14.1-9 26.5-20.8 35.3 -6.5 4.8-13.8 7.4-21.7 8.7 -14 1.9-27.9 3.7-41.9 5.7 -12.9 1.8-25.6 3.5-38.5 5.5 -14.3 2.1-28.8 4.4-43.1 6.5 -12.2 1.8-24.6 3.5-36.7 5.3 -18.4 2.6-30.2 13.4-37.8 29.9 -3.4 7.4-4.8 15.4-6 23.3 -3.5 21.4-7.1 42.9-10.8 64.3 -3.2 18.7-6.4 37.6-9.5 56.3 -3.5 20.5-7.1 40.8-10.6 61.3 -2.5 14-4.8 28.1-7.2 42C1148.9 664.4 1148.6 665.8 1148 667.9z"/>
  <path d="M1492.5 1.8c-3.7 1.2-6.4 1.9-9 3 -24.2 9.4-38.5 27-44.7 51.9 -3.5 14.3-7.8 28.6-11.8 42.7 -1.1 3.7-2.8 7.4-4.6 11 -1.8 3.5-4.6 6-8.1 7.8 -6.7 3.7-14.1 5.7-21.7 6.9 -11.8 1.8-23.7 1.1-35.5 1.8 -15.5 0.9-30.4 4.4-43.5 13.4 -7.2 4.9-12.9 11.5-16.4 19.4 -7.4 16.4-12.5 33.6-17.7 50.7 -7.1 24.7-13.4 49.8-19.1 75 -3 13.4-11.7 22.6-23.8 28.6 -7.6 3.7-15.7 5.5-24 6.2 -8.3 0.7-16.6 1.8-24.7 2.8 -9.7 1.2-19.6 2.5-29.3 3.9 -9.7 1.2-19.6 2.6-29.3 3.9 -9.5 1.2-19.1 2.5-28.4 3.7 -9 1.2-18 2.1-26.8 3.7 -11.8 2.1-20.5 9.2-26.8 19.1 -4.1 6.4-6.7 13.4-8.3 20.7 -6.2 27-12.7 54.1-18.5 81.2 -8.7 40.3-17.1 80.4-25.6 120.7 -0.2 0.9-0.5 1.8-1.1 3.4 -20.7-11.5-41.2-22.8-62-34.3 0.5-2.8 1.1-5.7 1.8-8.3 13.8-59 27.6-118.1 41.3-177.1 0.9-3.9 1.8-7.8 2.6-11.5 3.4-12.4 10.8-21.9 21.4-29 8.1-5.3 17.3-8.1 27-9.4 15-1.9 29.9-3.7 44.9-5.3 14.7-1.6 29.5-2.6 44.2-4.2 15-1.8 30-3.2 44.5-7.4 5.5-1.6 11-3.9 16.1-6.4 9.4-4.4 15.5-11.7 18.4-21.5 3-10.1 6-20.3 8.5-30.6 4.9-19.6 9.5-39.2 14.5-58.8 1.1-4.6 2.3-9 3.7-13.4 9-27 27.4-43.1 55.6-47.5 8.7-1.4 17.3-1.8 26.1-2.5 10.1-1.1 20.1-2.1 30.4-3 2.1-0.2 4.2-0.2 6.4-0.7 8.5-1.6 15-6.2 20.3-12.9 5.7-7.2 8.8-15.7 11-24.6 3.7-16.3 8.5-32.1 13.8-47.9 2.6-7.9 7.2-14.7 13.8-20 4.4-3.5 9.4-5.5 15.2-5.5 18-0.2 35.9-0.4 53.9-0.5C1475.2 1.1 1483.4 1.6 1492.5 1.8z"/>
  <path d="M1348.2 0.9c-8.8 3.4-16.8 7.9-23.5 14.3 -7.1 6.7-12 15-15.4 24 -4.4 11.5-8.8 23-13.6 34.3 -3.2 7.6-7.6 14.5-13.6 20.3 -7.2 7.1-15.7 11.3-25.8 12.5 -14 1.8-27.9 3.4-42 5.1 -6.4 0.7-12.5 1.6-18.9 2.6 -12.5 2.1-21.9 9-29.3 19.3 -4.6 6.5-7.6 14-9.4 21.6 -5.3 21.9-11.8 43.3-18.5 64.7 -3.7 12-7.8 23.8-11.5 35.9 -2.3 7.4-6.9 12.5-13.4 16.1 -7.9 4.4-16.6 6-25.6 6.7 -16.6 1.2-33.2 1.9-49.8 3.4 -14.7 1.2-29.1 2.8-43.8 4.4 -7.1 0.7-14.1 1.4-20.8 3 -19.8 4.8-32.9 17.7-40.3 36 -4.1 9.9-6.7 20.3-9.4 30.7 -11.1 42.4-22.1 84.9-33 127.3 -3 11.3-5.7 22.8-8.7 34.1 -0.4 1.4-0.7 2.6-1.2 4.2 -1.2-0.5-1.9-1.1-2.8-1.4 -15-8.3-30.2-16.8-45.2-25.1 -3.4-1.9-3.4-1.9-2.3-5.7 11-39.2 22.1-78.3 33-117.7 6-21.2 12-42.4 17.7-63.6 2.8-11 9.2-19.3 18-25.8 9.5-7.1 20.3-11 32.1-12 13.8-1.4 27.6-2.3 41.3-3.5 12.7-1.2 25.6-2.6 38.3-3.9 12-1.2 24.2-2.6 36.2-3.5 9-0.7 15.2-5.5 20.3-12.2 6-7.8 9.5-17 12.4-26.3 8.3-28.1 18.2-55.8 28.3-83.3 4.9-13.6 14.7-22.6 27.7-27.9 6.4-2.6 13.2-3.9 20.1-4.6 14.8-1.2 29.9-2.8 44.7-4.1 8.7-0.7 14.8-4.8 19.6-11.8 6.5-9.5 11.5-20.1 16.1-30.7 4.9-11.8 10.6-23.1 18.2-33.4 7.4-9.9 16.4-17.7 28.1-22.4 4.9-1.9 10.2-2.5 15.4-2.6 12.5-0.4 25.1-0.2 37.8 0C1339.7 0.2 1343.9 0.7 1348.2 0.9z"/>
  <path d="M1233.4 2.3c-2.3 1.1-4.6 2.1-6.7 3.4 -4.4 2.6-9 5.3-13.2 8.3 -4.6 3.2-7.9 7.4-10.6 12.4 -8.1 15.2-16.3 30.4-24.6 45.4 -2.5 4.4-5.1 8.7-7.9 13.1 -3.2 4.9-7.6 8.3-12.9 10.6 -6.4 2.8-13.1 4.4-20 5.1 -10.6 1.1-21 1.6-31.6 2.6 -5.3 0.5-10.6 1.6-15.7 3 -9.2 2.5-15.9 8.8-22.1 15.7 -5.7 6.4-9.2 13.8-11.8 21.7 -3.9 11.8-7.4 23.7-11.1 35.5 -3.9 12.5-8.1 24.9-14.8 36.4 -2.6 4.4-5.5 8.5-8.5 12.5 -6.4 8.7-15.2 13.4-25.4 15.5 -10.1 2.1-20.1 3.9-30.4 5.1 -13.4 1.6-27 2.3-40.5 3.5 -13.8 1.2-27.6 2.5-41.2 4.2 -10.4 1.2-20.5 3.7-29.7 9.2 -7.9 4.6-14 10.8-18.2 19.1 -4.6 9-7.9 18.4-10.8 28.1 -14.5 49.8-28.8 99.7-43.3 149.5 -0.4 1.4-0.9 3-1.6 5.1 -17.7-10.2-35-20.3-52.5-30.6 3-9 5.8-17.7 8.7-26.1 14.5-43.8 29-87.5 43.5-131.3 3.2-9.7 9.5-17 17-23.3 11.3-9.5 24.6-14.1 39.4-14.5 13.8-0.4 27.7-0.4 41.5-1.1 17.5-0.7 35-1.6 52.1-4.9 6.9-1.4 13.8-2.8 20.5-5.1 11.8-4.2 20.1-12.5 24.9-24.4 9.2-22.6 18.9-45 29.7-66.8 3.2-6.5 6.9-12.7 10.2-19.1 3-5.7 7.4-10.2 11.8-14.8 3.4-3.7 7.9-5.3 12.5-6.7 8.3-2.5 16.8-3.9 25.4-4.2 11.3-0.5 22.6-0.7 33.9-1.1 3.9-0.2 7.6-0.4 11.3-1.1 7.1-1.2 12.5-5.3 17.3-10.8 4.4-5.1 7.2-11.1 10.2-17 5.7-10.8 11.1-21.6 17.3-32 5.3-9.2 12.4-17.1 20.8-23.7 5.1-3.9 10.8-6.2 17.1-6.4 13.2-0.4 26.5-0.7 39.7-1.1C1233.3 1.8 1233.3 1.9 1233.4 2.3z"/>
  <path d="M1012.8 616.5c1.4 0.5 2.3 0.9 3 1.4 11.5 6.2 22.8 12.4 34.1 18.7 7.2 4.1 13.6 9.2 18.2 16.3 5.7 8.8 7.2 18.4 3.5 28.3 -1.6 4.6-4.2 9-7.1 12.9 -6 8.3-15 10.4-24.7 10.4 -1.4 0-2.6 0-4.2 0 0 0.5-0.4 1.1-0.2 1.4 2.8 7.4 1.8 15 0.5 22.6 -2.3 14.1-4.9 28.1-7.4 42 0 0.4-0.4 0.7-0.7 1.4 -1.1-0.4-2.1-0.7-3-1.2 -6.4-3.4-12.7-6.9-18.9-10.4 -3.5-1.9-3.5-2.1-2.6-6 2.5-11.7 5.1-23.5 7.6-35.2 0.5-2.8 0.9-5.7 1.1-8.3 0.4-5.7-0.9-11.5-9.9-14.8 -4.9 7.4-8.7 15.5-13.1 23.3 -4.4 7.8-8.7 15.7-13.2 24.2 -8.5-4.1-16.4-8.8-25.1-13.4C971.5 691.9 992 654.1 1012.8 616.5zM1012.7 676.2c4.9 2.8 9.2 5.8 14.3 7.1 4.8 1.2 9 0 12.5-3.2 3.2-2.8 5.1-6.5 6.2-10.8 0.9-3.5 0.2-6.7-1.9-9.5 -2.6-3.7-11.3-9.2-16.6-10.2C1022.4 658.2 1017.6 667 1012.7 676.2z"/>
  <path d="M720.3 455.8c8.3 4.6 16.4 9 24.7 13.6 -1.8 3.2-3.2 6.2-4.9 9.2 -12 22.1-24.2 44-36.2 66.1 -1.6 3-3.2 6.4-4.1 9.7 -1.9 7.1 1.2 13.6 7.9 17.5 6.9 3.9 13.8 3.4 18.9-2.1 2.3-2.5 4.2-5.3 5.8-8.1 13.2-23.8 26.1-47.7 39.4-71.4 0.7-1.4 1.6-2.6 2.5-4.2 8.3 4.6 16.3 9 24.6 13.4 -0.7 1.4-1.1 2.5-1.6 3.5 -13.1 24-26.1 48-39.6 71.8 -2.8 4.9-6.4 9.7-10.2 13.8 -10.1 10.4-22.4 13.6-36.4 9.9 -10.8-2.8-20.1-8.1-28.1-15.9 -11.8-11.5-14.3-25.3-8.8-40.5 2.3-6.4 5.5-12.4 8.8-18.2 11.5-21.4 23.3-42.6 35-63.9C718.6 458.6 719.3 457.4 720.3 455.8z"/>
  <path d="M768.7 620.7c4.4-7.9 8.3-15.2 12.9-23.3 1.1 1.9 1.6 3.2 2.3 4.6 2.3 4.1 4.2 8.3 6.9 12.2 2.8 4.1 6.5 7.4 11.7 8.7 6.4 1.6 12-1.2 14.1-7.6 1.2-3.7 1.2-7.6 0.5-11.3 -1.2-5.5-2.8-11-4.4-16.4 -2.6-8.7-5.5-17.3-5.8-26.3 -0.4-13.2 3.7-24.6 15.4-32 7.4-4.8 15.7-6 24.4-4.1 14.8 3.2 25.3 12.4 33.4 24.9 -3.7 6.5-7.1 13.1-11 20 -1.1-1.4-1.8-2.5-2.6-3.4 -3.2-4.1-6.4-8.3-9.7-12.2 -2.8-3.2-6.5-4.9-10.6-5.7 -6.2-1.2-11.1 2.6-11.3 8.8 0 3.9 0.5 7.9 1.4 11.7 1.9 7.6 4.4 15.2 6.5 22.8 1.9 7.2 3.2 14.7 3 22.1 -0.4 20.7-18.2 36.9-38.7 35 -11.1-1.1-20.5-6.4-27.9-14.7C775.5 630.5 772.5 625.5 768.7 620.7z"/>
  <path d="M936 685.4c-3.9 7.1-7.2 13.2-10.6 19.4 -1.1 1.9-2.8 2.1-4.8 2.3 -9.4 0.7-17.8-1.8-26-6 -20.7-11.1-29-31.3-25.8-52.6 3.5-23.1 14.7-42.2 32-57.6 6-5.5 13.1-9.2 21-11.5 10.2-2.8 20.3-2.3 30.2 1.8 10.2 4.2 18.5 11.1 25.4 19.8 1.2 1.6 2.1 3 0.9 4.9 -3.4 5.8-6.5 11.8-10.2 18.4 -1.2-1.8-2.3-3-3.2-4.4 -3.7-5.5-8.1-10.1-14.3-12.9 -9.4-4.2-18.4-3.7-26.8 2.1 -3.5 2.5-7.1 5.3-9.7 8.7 -8.5 10.1-14.5 21.6-17 34.6 -0.9 4.2-0.9 8.8-0.2 13.1 1.9 10.8 11.5 19.1 22.8 20C924.9 685.7 930 685.4 936 685.4z"/>
  <path d="M1115.5 672.5c8.5 4.6 16.4 9 24.2 13.2 -0.5 3.2-57.2 107.1-61.8 113.7 -7.9-4.4-16.1-8.8-24.6-13.4C1074.2 748 1094.7 710.5 1115.5 672.5z"/>
</svg>
